PathFileType	4	(X/Y/Z)	OpenSim_Sub10_CSStiffKnee_Magnet.trc
DataRate	CameraRate	NumFrames	NumMarkers	Units	OrigDataRate	OrigDataStartFrame	OrigNumFrames
100	100	23	8	m	100	3066	8174
Frame#	Time	torso_imu_offset_imu	pelvis_imu_offset_imu	tibia_r_imu_offset_imu	femur_r_imu_offset_imu	tibia_l_imu_offset_imu	femur_l_imu_offset_imu	toes_r_imu_offset_imu	toes_l_imu_offset_imu
				X1	Y1	Z1	X2	Y2	Z2	X3	Y3	Z3	X4	Y4	Z4	X5	Y5	Z5	X6	Y6	Z6	X7	Y7	Z7	X8		Y8	Z8	

3066	30.65000000	-0.93710187	-0.02938252	0.12542394	-0.61351120	-0.00353864	-0.72798174	-0.49363066	-0.72896123	-0.17892914	-0.59872734	-0.57692945	0.03009053	-0.73499862	0.30460422	0.13899980	-0.70599013	0.06087683	0.21116694	-0.70003003	-0.35094063	-0.24533317	-0.65509295	-0.17782612	-0.45251085
3067	30.66000000	-0.93915970	-0.03268587	0.11882300	-0.61748249	0.00056683	-0.72219588	-0.47719545	-0.74066118	-0.18522575	-0.59758085	-0.57518494	0.02844951	-0.73071404	0.31537080	0.15025569	-0.69878696	0.05937372	0.22421151	-0.70951678	-0.35226917	-0.22753749	-0.66530539	-0.17425866	-0.43404540
3068	30.67000000	-0.94310742	-0.03974208	0.11487397	-0.61730198	0.00209007	-0.71458348	-0.45939932	-0.74721168	-0.19200861	-0.60359540	-0.57780945	0.02860979	-0.72600999	0.31668258	0.15902032	-0.69217889	0.05493354	0.24093620	-0.72067296	-0.35493563	-0.20459307	-0.68293775	-0.16888009	-0.41713754
3069	30.68000000	-0.94192013	-0.04938918	0.11499307	-0.61869660	0.00485963	-0.72026609	-0.43776239	-0.74802778	-0.20828416	-0.60832489	-0.57060663	0.01901402	-0.72210344	0.32642070	0.16418452	-0.69480318	0.05206415	0.24167461	-0.72779998	-0.36489523	-0.17062684	-0.68528114	-0.15902440	-0.41084490
3070	30.69000000	-0.93788555	-0.05099255	0.11363133	-0.61485675	0.00447550	-0.71411389	-0.41464002	-0.76044882	-0.21407847	-0.61358315	-0.56405270	0.01323261	-0.71817426	0.33785418	0.17159723	-0.69187561	0.05275284	0.23515347	-0.73569626	-0.36702613	-0.13032914	-0.67941701	-0.15356016	-0.40703849
3071	30.70000000	-0.93732029	-0.06124124	0.10346246	-0.62317816	0.00127395	-0.71397468	-0.39678108	-0.76816543	-0.22202044	-0.62334948	-0.55427584	0.01622139	-0.70936558	0.34385382	0.17378548	-0.69057151	0.05039280	0.23547437	-0.74027495	-0.37168732	-0.08610042	-0.68587760	-0.15670732	-0.40273913
3072	30.71000000	-0.93586945	-0.06507362	0.11060194	-0.63112758	0.00245990	-0.71207011	-0.37699995	-0.76832180	-0.23546389	-0.63073095	-0.54128815	0.01263208	-0.70301497	0.35706064	0.17826147	-0.68815599	0.04683168	0.22752922	-0.74238015	-0.38352863	-0.03770323	-0.68809911	-0.15728114	-0.40351802
3073	30.72000000	-0.93451830	-0.06501693	0.11251830	-0.62856968	0.00162302	-0.70562752	-0.35103935	-0.77388135	-0.24367027	-0.64637198	-0.52834681	0.00245629	-0.69265455	0.36407943	0.17615974	-0.69142597	0.05258760	0.23193866	-0.73941347	-0.39323442	0.01498034	-0.68737822	-0.15600421	-0.39976545
3074	30.73000000	-0.93569159	-0.07154165	0.10999445	-0.63388865	0.01166701	-0.70265842	-0.33025875	-0.78556724	-0.23700525	-0.66325043	-0.51197375	-0.00356034	-0.68865206	0.37273686	0.18225916	-0.69111455	0.05518840	0.23511818	-0.74061070	-0.39624237	0.06162237	-0.68160736	-0.16429961	-0.40740545
3075	30.74000000	-0.93019135	-0.07709718	0.11021634	-0.63733293	0.02074457	-0.70202951	-0.30651343	-0.78749700	-0.23792791	-0.67296501	-0.49803333	-0.00365672	-0.68712229	0.37884811	0.19092042	-0.69266711	0.06373229	0.23109867	-0.73250991	-0.39751457	0.10671768	-0.68433964	-0.16444151	-0.40314936
3076	30.75000000	-0.93059765	-0.07782254	0.10268289	-0.63561158	0.02683200	-0.70499041	-0.28012011	-0.78901282	-0.23839003	-0.69013366	-0.48418130	-0.00790753	-0.68199410	0.38141015	0.19737014	-0.69110356	0.07040652	0.23346958	-0.71925297	-0.40618382	0.14823297	-0.69123553	-0.16451539	-0.39653454
3077	30.76000000	-0.93101254	-0.08104636	0.10159504	-0.63383791	0.03299916	-0.69889538	-0.26291692	-0.79895712	-0.23685466	-0.70360348	-0.46419369	-0.00925461	-0.67844153	0.38637374	0.20289368	-0.69499748	0.07679701	0.23469244	-0.70619314	-0.41545665	0.18286405	-0.68951413	-0.16897560	-0.40279139
3078	30.77000000	-0.93269846	-0.08142120	0.10438887	-0.64049751	0.03796176	-0.70003867	-0.23809761	-0.80782919	-0.23767347	-0.71279680	-0.44663519	-0.00843306	-0.67999298	0.39018345	0.20274187	-0.69045084	0.08794623	0.24140518	-0.69435992	-0.42325416	0.21452329	-0.68723670	-0.16835370	-0.40378163
3079	30.78000000	-0.93406621	-0.08100361	0.10692413	-0.64409904	0.04463506	-0.69940093	-0.21873556	-0.80835378	-0.24065649	-0.72414214	-0.42669863	-0.00959518	-0.67853260	0.39682307	0.20240584	-0.67894014	0.10265462	0.23876686	-0.67926177	-0.43127369	0.23781137	-0.68581988	-0.16407862	-0.40512935
3080	30.79000000	-0.93007299	-0.08511213	0.10580259	-0.63723272	0.05018825	-0.69889854	-0.20791748	-0.80673021	-0.24067882	-0.73536168	-0.41283566	-0.00997015	-0.67407910	0.39897621	0.20263107	-0.67811828	0.11177505	0.23800426	-0.66800975	-0.43973683	0.24207117	-0.68974885	-0.16227392	-0.40613024
3081	30.80000000	-0.93250027	-0.08873280	0.09857329	-0.63633587	0.06046808	-0.69918215	-0.18671925	-0.80763997	-0.23236987	-0.74458213	-0.39820046	-0.01091404	-0.67600097	0.40183007	0.20133787	-0.67732352	0.12386954	0.24173340	-0.66363022	-0.44530764	0.23879456	-0.68979074	-0.16269493	-0.40677234
3082	30.81000000	-0.93350880	-0.09539146	0.09843872	-0.62981366	0.06451663	-0.69911163	-0.17741510	-0.80500937	-0.22478588	-0.75529615	-0.37967286	-0.01002126	-0.67353855	0.41188717	0.20653509	-0.67570097	0.14370559	0.24486337	-0.65226961	-0.44859055	0.23712385	-0.68987400	-0.16253436	-0.41218228
3083	30.82000000	-0.92964112	-0.09624368	0.09756405	-0.63080658	0.06547991	-0.70205106	-0.17540559	-0.80889225	-0.22784194	-0.76272037	-0.36560390	-0.00860828	-0.66540806	0.41313708	0.21438953	-0.67359280	0.15385460	0.23937882	-0.64396484	-0.45406453	0.23536525	-0.69155935	-0.16323019	-0.40870169
3084	30.83000000	-0.93264575	-0.10497766	0.10129288	-0.63299626	0.07345594	-0.70370296	-0.17234109	-0.81014228	-0.23368214	-0.77435821	-0.34748503	-0.00463336	-0.66266096	0.41421462	0.21220584	-0.67363435	0.16082557	0.24405721	-0.64308738	-0.45942564	0.23098120	-0.68981035	-0.16913199	-0.40668570
3085	30.84000000	-0.93014120	-0.11062606	0.10482489	-0.63326108	0.07821712	-0.70142219	-0.17744967	-0.80170419	-0.24882673	-0.78067730	-0.32559251	-0.00690921	-0.66489285	0.41842763	0.21004911	-0.67051550	0.16981880	0.24946759	-0.64297249	-0.46056813	0.21440251	-0.69583268	-0.17160044	-0.40860426
3086	30.85000000	-0.92616286	-0.11178026	0.10449514	-0.63177926	0.07969035	-0.70290174	-0.19136865	-0.79650960	-0.26095165	-0.78803791	-0.30812505	-0.01002499	-0.66616422	0.41834015	0.21912575	-0.67054285	0.17880853	0.25099267	-0.64385641	-0.46074586	0.20135020	-0.70301366	-0.17284091	-0.40797466
3087	30.86000000	-0.92867018	-0.11669266	0.10304931	-0.62942277	0.08303398	-0.70016255	-0.20169197	-0.78791654	-0.27792958	-0.79636493	-0.29005459	-0.00967870	-0.66444550	0.41991041	0.22686561	-0.67023616	0.18483685	0.25486426	-0.64768436	-0.45824604	0.18515891	-0.70540510	-0.17245864	-0.40824055
3088	30.87000000	-0.92744343	-0.12131457	0.10367076	-0.63140912	0.08857944	-0.70240982	-0.21648053	-0.77303284	-0.30819208	-0.80040623	-0.27469854	-0.00340242	-0.66262999	0.42040378	0.21980110	-0.66193116	0.18875972	0.25683759	-0.65144801	-0.45333630	0.16386709	-0.70779918	-0.17069084	-0.39827997
